<svg width="26" height="24" viewBox="0 0 26 24" fill="none" xmlns="http://www.w3.org/2000/svg">
<path fill-rule="evenodd" clip-rule="evenodd" d="M1.07865 1.05897C1.76727 0.379426 2.69846 0 3.66667 0H22.3333C23.3015 0 24.2327 0.379426 24.9214 1.05897C25.6104 1.73896 26 2.66407 26 3.63152V16.7891C26 17.7566 25.6104 18.6817 24.9214 19.3617C24.2327 20.0412 23.3015 20.4206 22.3333 20.4206H16.7709C16.7708 20.4206 16.7709 20.4206 16.7709 20.4206C16.3247 20.4208 15.8993 20.5959 15.5878 20.9033L13.0984 23.36C11.7249 24.7153 9.33333 23.7833 9.33333 21.8048C9.33333 21.0528 8.71129 20.4206 7.91733 20.4206H3.66667C2.69846 20.4206 1.76727 20.0412 1.07865 19.3617C0.389576 18.6817 0 17.7566 0 16.7891V3.63152C0 2.66407 0.389576 1.73896 1.07865 1.05897ZM3.66667 2C3.22039 2 2.79502 2.17507 2.48345 2.48254C2.17233 2.78956 2 3.20313 2 3.63152V16.7891C2 17.2175 2.17233 17.6311 2.48345 17.9381C2.79502 18.2456 3.22039 18.4206 3.66667 18.4206H7.91733C9.79004 18.4206 11.3333 19.9226 11.3333 21.8048C11.3333 21.859 11.3477 21.889 11.3625 21.9098C11.3807 21.9353 11.4124 21.9628 11.4575 21.9812C11.5026 21.9997 11.5475 22.0034 11.5838 21.9972C11.6148 21.9919 11.6516 21.9779 11.6936 21.9364L14.1828 19.48C14.1829 19.48 14.1828 19.48 14.1828 19.48C14.8713 18.8005 15.8024 18.4208 16.7705 18.4206H22.3333C22.7796 18.4206 23.205 18.2456 23.5166 17.9381C23.8277 17.6311 24 17.2175 24 16.7891V3.63152C24 3.20313 23.8277 2.78956 23.5166 2.48254C23.205 2.17507 22.7796 2 22.3333 2H3.66667ZM5.33333 6.26304C5.33333 5.71075 5.78105 5.26304 6.33333 5.26304H19.6667C20.219 5.26304 20.6667 5.71075 20.6667 6.26304C20.6667 6.81532 20.219 7.26304 19.6667 7.26304H6.33333C5.78105 7.26304 5.33333 6.81532 5.33333 6.26304ZM5.33333 10.2103C5.33333 9.65803 5.78105 9.21032 6.33333 9.21032H19.6667C20.219 9.21032 20.6667 9.65803 20.6667 10.2103C20.6667 10.7626 20.219 11.2103 19.6667 11.2103H6.33333C5.78105 11.2103 5.33333 10.7626 5.33333 10.2103ZM5.33333 14.1576C5.33333 13.6053 5.78105 13.1576 6.33333 13.1576H11.6667C12.219 13.1576 12.6667 13.6053 12.6667 14.1576C12.6667 14.7099 12.219 15.1576 11.6667 15.1576H6.33333C5.78105 15.1576 5.33333 14.7099 5.33333 14.1576Z" fill="white"/>
</svg>
