<svg width="22" height="24" viewBox="0 0 22 24" fill="none" xmlns="http://www.w3.org/2000/svg">
<path fill-rule="evenodd" clip-rule="evenodd" d="M11.6956 0.28153C11.3078 -0.0938425 10.6922 -0.0938425 10.3044 0.28153C9.36409 1.1919 8.43897 2.05509 7.55511 2.8798L7.55509 2.87981L7.55508 2.87982C5.8894 4.43402 4.37022 5.85152 3.1716 7.19043C1.31505 9.2643 0 11.3819 0 13.9081C0 15.46 0.489438 16.7353 1.38555 17.6342C2.27447 18.5259 3.47057 18.9538 4.71581 18.9964C5.71947 19.0308 6.7785 18.8189 7.80516 18.3767L6.5299 21.1692C5.92502 22.4937 6.89306 24 8.34917 24H10.7932H13.3167C14.7313 24 15.6988 22.5715 15.1739 21.2579L13.9851 18.2829C15.0767 18.7888 16.212 19.0331 17.2842 18.9964C18.5294 18.9538 19.7255 18.5259 20.6145 17.6342C21.5106 16.7353 22 15.46 22 13.9081C22 11.3819 20.685 9.2643 18.8284 7.19043C17.6298 5.85152 16.1106 4.43402 14.4449 2.87982L14.4449 2.87978C13.561 2.05508 12.6359 1.19189 11.6956 0.28153ZM2 13.9081C2 12.1316 2.90718 10.4843 4.66173 8.52442C5.80365 7.24884 7.20914 5.93822 8.82264 4.43363L8.82265 4.43363L8.82267 4.4336C9.51193 3.79086 10.2392 3.11273 11 2.38681C11.7609 3.11274 12.4881 3.79088 13.1774 4.43362C14.7909 5.93822 16.1963 7.24884 17.3383 8.52442C19.0928 10.4843 20 12.1316 20 13.9081C20 15.0293 19.6561 15.7627 19.198 16.2222C18.7328 16.6889 18.0539 16.9689 17.2158 16.9976C15.519 17.0556 13.3241 16.0578 11.8236 13.8788C11.637 13.6078 11.329 13.4459 11 13.4459C10.671 13.4459 10.363 13.6078 10.1764 13.8788C8.67587 16.0578 6.48104 17.0556 4.78419 16.9976C3.9461 16.9689 3.2672 16.6889 2.80195 16.2222C2.3439 15.7627 2 15.0293 2 13.9081ZM8.34917 22L10.9985 16.1986L13.3167 22H10.7932L8.34917 22Z" fill="black"/>
</svg>
