<svg width="370" height="140" viewBox="0 0 370 140" fill="none" xmlns="http://www.w3.org/2000/svg">
<g clip-path="url(#clip0_14708_95)">
<path d="M194.766 68.9994C192.285 68.9994 190.496 69.8132 188.682 70.6422V89.4009C190.419 89.5664 191.415 89.5664 193.064 89.5664C199.02 89.5664 199.836 86.8387 199.836 83.0302V74.0709C199.836 71.2584 198.903 68.9994 194.766 68.9994ZM155.21 67.9757C151.077 67.9757 150.134 70.2444 150.134 73.0541V74.6329H160.28V73.0541C160.28 70.2444 159.337 67.9757 155.21 67.9757ZM78.5806 87.5008C78.5806 89.7236 79.6294 90.8781 81.944 90.8781C84.4269 90.8781 85.8972 90.0686 87.7096 89.2368V84.787H82.2806C79.7101 84.787 78.5806 85.2655 78.5806 87.5008ZM233.245 68.9994C229.105 68.9994 227.671 71.2584 227.671 74.0709V84.335C227.671 87.1545 229.105 89.4204 233.245 89.4204C237.373 89.4204 238.818 87.1545 238.818 84.335V74.0709C238.817 71.2584 237.372 68.9994 233.245 68.9994ZM58.2946 99.0098H46.1263V69.5572H40.0464V59.4087H46.1277V53.3134C46.1277 45.0329 49.5593 40.1102 59.3128 40.1102H67.4333V50.2616H62.3577C58.5603 50.2616 58.3099 51.6804 58.3099 54.3274L58.2946 59.4073H67.489L66.4138 69.5558H58.2946V99.0098ZM99.8807 99.0863H89.7391L89.3009 96.5213C84.6703 99.0863 80.5377 99.5022 77.8114 99.5022C70.3739 99.5022 66.4151 94.5336 66.4151 87.6622C66.4151 79.5556 71.0346 76.6623 79.2984 76.6623H87.7096V74.9097C87.7096 70.7715 87.2353 69.5572 80.8716 69.5572H70.4671L71.4839 59.4087H82.8565C96.8191 59.4087 99.8807 63.8194 99.8807 74.9918V99.0863ZM134.367 70.3014C128.056 69.2192 126.244 68.9814 123.207 68.9814C117.753 68.9814 116.105 70.1846 116.105 74.8165V83.5783C116.105 88.2102 117.753 89.419 123.207 89.419C126.244 89.419 128.056 89.177 134.367 88.0906V97.9902C128.839 99.2296 125.238 99.555 122.195 99.555C109.131 99.555 103.938 92.685 103.938 82.7604V75.6511C103.938 65.7181 109.131 58.8356 122.195 58.8356C125.238 58.8356 128.839 59.1624 134.367 60.4074V70.3014ZM172.447 82.7604H150.133V83.5783C150.133 88.2102 151.782 89.419 157.235 89.419C162.137 89.419 165.129 89.177 171.428 88.0906V97.9902C165.353 99.2296 162.187 99.555 156.226 99.555C143.161 99.555 137.966 92.685 137.966 82.7604V74.6315C137.966 65.9476 141.82 58.8356 155.208 58.8356C168.596 58.8356 172.447 65.8656 172.447 74.6315V82.7604ZM212.002 82.9482C212.002 92.5403 209.26 99.537 192.652 99.537C186.654 99.537 183.136 99.0098 176.517 97.9916V43.1593L188.681 41.1298V60.31C191.31 59.3335 194.712 58.837 197.808 58.837C209.974 58.837 212 64.291 212 73.0555V82.9482H212.002ZM250.995 83.1568C250.995 91.4317 247.579 99.4577 233.285 99.4577C218.985 99.4577 215.504 91.4317 215.504 83.1568V75.167C215.504 66.8879 218.985 58.8606 233.285 58.8606C247.579 58.8606 250.995 66.8879 250.995 75.167V83.1568ZM289.962 83.1568C289.962 91.4317 286.542 99.4577 272.251 99.4577C257.95 99.4577 254.47 91.4317 254.47 83.1568V75.167C254.47 66.8879 257.95 58.8606 272.251 58.8606C286.542 58.8606 289.962 66.8879 289.962 75.167V83.1568ZM329.951 99.0098H316.766L305.615 80.3943V99.0098H293.446V43.1579L305.615 41.1284V77.0838L316.766 59.4087H329.951L317.777 78.6973L329.951 99.0098ZM272.209 68.9994C268.076 68.9994 266.642 71.2584 266.642 74.0709V84.335C266.642 87.1545 268.076 89.4204 272.209 89.4204C276.336 89.4204 277.796 87.1545 277.796 84.335V74.0709C277.796 71.2584 276.336 68.9994 272.209 68.9994ZM336.896 92.0632C338.945 92.0632 340.577 93.7338 340.577 95.8203C340.577 97.9387 338.944 99.5912 336.881 99.5912C334.828 99.5912 333.163 97.9387 333.163 95.8203C333.163 93.7338 334.828 92.0632 336.881 92.0632H336.896ZM336.881 92.6474C335.23 92.6474 333.879 94.0676 333.879 95.8203C333.879 97.6049 335.231 99.007 336.896 99.007C338.563 99.0237 339.894 97.6049 339.894 95.837C339.894 94.069 338.563 92.6474 336.896 92.6474H336.881ZM336.181 98.0069H335.514V93.8145C335.864 93.7658 336.198 93.7171 336.699 93.7171C337.333 93.7171 337.748 93.8507 338.002 94.0329C338.248 94.2179 338.38 94.5002 338.38 94.8994C338.38 95.4531 338.016 95.7855 337.567 95.9204V95.9524C337.933 96.0206 338.182 96.3516 338.266 96.9678C338.364 97.6202 338.465 97.8692 338.531 98.0055H337.831C337.732 97.8692 337.631 97.4867 337.547 96.9344C337.45 96.4017 337.18 96.2014 336.646 96.2014H336.183V98.0069H336.181ZM336.181 95.6867H336.665C337.213 95.6867 337.679 95.485 337.679 94.9662C337.679 94.599 337.415 94.2332 336.665 94.2332C336.447 94.2332 336.295 94.2499 336.181 94.2652V95.6867Z" fill="black"/>
</g>
<defs>
<clipPath id="clip0_14708_95">
<rect width="370" height="139.12" fill="white"/>
</clipPath>
</defs>
</svg>
