<svg width="370" height="140" viewBox="0 0 370 140" fill="none" xmlns="http://www.w3.org/2000/svg">
<g clip-path="url(#clip0_14713_78)">
<path d="M194.766 69.4748C192.285 69.4748 190.496 70.2885 188.682 71.1175V89.8763C190.419 90.0418 191.415 90.0418 193.064 90.0418C199.02 90.0418 199.836 87.3141 199.836 83.5056V74.5463C199.836 71.7337 198.903 69.4748 194.766 69.4748ZM155.21 68.451C151.077 68.451 150.134 70.7197 150.134 73.5295V75.1082H160.28V73.5295C160.28 70.7197 159.337 68.451 155.21 68.451ZM78.5806 87.9762C78.5806 90.199 79.6294 91.3535 81.944 91.3535C84.4269 91.3535 85.8972 90.5439 87.7096 89.7121V85.2624H82.2806C79.7101 85.2624 78.5806 85.7409 78.5806 87.9762ZM233.245 69.4748C229.105 69.4748 227.671 71.7337 227.671 74.5463V84.8103C227.671 87.6298 229.105 89.8957 233.245 89.8957C237.373 89.8957 238.818 87.6298 238.818 84.8103V74.5463C238.817 71.7337 237.372 69.4748 233.245 69.4748ZM58.2946 99.4851H46.1263V70.0326H40.0464V59.884H46.1277V53.7887C46.1277 45.5082 49.5593 40.5856 59.3128 40.5856H67.4333V50.7369H62.3577C58.5603 50.7369 58.3099 52.1557 58.3099 54.8028L58.2946 59.8826H67.489L66.4138 70.0312H58.2946V99.4851ZM99.8807 99.5616H89.7391L89.3009 96.9967C84.6703 99.5616 80.5377 99.9775 77.8114 99.9775C70.3739 99.9775 66.4151 95.009 66.4151 88.1375C66.4151 80.0309 71.0346 77.1377 79.2984 77.1377H87.7096V75.385C87.7096 71.2469 87.2353 70.0326 80.8716 70.0326H70.4671L71.4839 59.884H82.8565C96.8191 59.884 99.8807 64.2948 99.8807 75.4671V99.5616ZM134.367 70.7767C128.056 69.6946 126.244 69.4567 123.207 69.4567C117.753 69.4567 116.105 70.6599 116.105 75.2919V84.0536C116.105 88.6856 117.753 89.8943 123.207 89.8943C126.244 89.8943 128.056 89.6523 134.367 88.5659V98.4655C128.839 99.7049 125.238 100.03 122.195 100.03C109.131 100.03 103.938 93.1604 103.938 83.2357V76.1264C103.938 66.1935 109.131 59.3109 122.195 59.3109C125.238 59.3109 128.839 59.6378 134.367 60.8827V70.7767ZM172.447 83.2357H150.133V84.0536C150.133 88.6856 151.782 89.8943 157.235 89.8943C162.137 89.8943 165.129 89.6523 171.428 88.5659V98.4655C165.353 99.7049 162.187 100.03 156.226 100.03C143.161 100.03 137.966 93.1604 137.966 83.2357V75.1069C137.966 66.423 141.82 59.3109 155.208 59.3109C168.596 59.3109 172.447 66.3409 172.447 75.1069V83.2357ZM212.002 83.4235C212.002 93.0157 209.26 100.012 192.652 100.012C186.654 100.012 183.136 99.4851 176.517 98.4669V43.6346L188.681 41.6052V60.7853C191.31 59.8089 194.712 59.3123 197.808 59.3123C209.974 59.3123 212 64.7663 212 73.5309V83.4235H212.002ZM250.995 83.6322C250.995 91.9071 247.579 99.933 233.285 99.933C218.985 99.933 215.504 91.9071 215.504 83.6322V75.6424C215.504 67.3633 218.985 59.3359 233.285 59.3359C247.579 59.3359 250.995 67.3633 250.995 75.6424V83.6322ZM289.962 83.6322C289.962 91.9071 286.542 99.933 272.251 99.933C257.95 99.933 254.47 91.9071 254.47 83.6322V75.6424C254.47 67.3633 257.95 59.3359 272.251 59.3359C286.542 59.3359 289.962 67.3633 289.962 75.6424V83.6322ZM329.951 99.4851H316.766L305.615 80.8697V99.4851H293.446V43.6332L305.615 41.6038V77.5591L316.766 59.884H329.951L317.777 79.1727L329.951 99.4851ZM272.209 69.4748C268.076 69.4748 266.642 71.7337 266.642 74.5463V84.8103C266.642 87.6298 268.076 89.8957 272.209 89.8957C276.336 89.8957 277.796 87.6298 277.796 84.8103V74.5463C277.796 71.7337 276.336 69.4748 272.209 69.4748ZM336.896 92.5386C338.945 92.5386 340.577 94.2091 340.577 96.2956C340.577 98.4141 338.944 100.067 336.881 100.067C334.828 100.067 333.163 98.4141 333.163 96.2956C333.163 94.2091 334.828 92.5386 336.881 92.5386H336.896ZM336.881 93.1228C335.23 93.1228 333.879 94.543 333.879 96.2956C333.879 98.0802 335.231 99.4823 336.896 99.4823C338.563 99.499 339.894 98.0802 339.894 96.3123C339.894 94.5444 338.563 93.1228 336.896 93.1228H336.881ZM336.181 98.4822H335.514V94.2898C335.864 94.2411 336.198 94.1925 336.699 94.1925C337.333 94.1925 337.748 94.326 338.002 94.5082C338.248 94.6932 338.38 94.9756 338.38 95.3748C338.38 95.9284 338.016 96.2608 337.567 96.3958V96.4278C337.933 96.4959 338.182 96.827 338.266 97.4432C338.364 98.0955 338.465 98.3445 338.531 98.4808H337.831C337.732 98.3445 337.631 97.962 337.547 97.4098C337.45 96.877 337.18 96.6767 336.646 96.6767H336.183V98.4822H336.181ZM336.181 96.1621H336.665C337.213 96.1621 337.679 95.9604 337.679 95.4416C337.679 95.0743 337.415 94.7085 336.665 94.7085C336.447 94.7085 336.295 94.7252 336.181 94.7405V96.1621Z" fill="white"/>
</g>
<defs>
<clipPath id="clip0_14713_78">
<rect width="370" height="139.12" fill="white" transform="translate(0 0.475342)"/>
</clipPath>
</defs>
</svg>
