<svg width="306" height="230" viewBox="0 0 306 230" fill="none" xmlns="http://www.w3.org/2000/svg">
<path d="M18.1304 87.369C12.0104 89.97 5.20194 97.2375 3.05994 106.418C0.382437 117.969 11.6279 122.865 12.5459 121.258C13.6169 119.346 10.5569 118.734 9.86844 112.767C9.02694 105.041 12.6224 96.3195 17.2124 92.571C18.0539 91.8825 18.0539 92.877 18.0539 94.6365C18.0539 97.926 17.9009 127.073 17.9009 133.193C17.9009 141.454 17.5949 144.056 16.9829 146.58C16.3709 149.181 15.3764 150.941 16.1414 151.629C16.9829 152.394 20.5784 150.558 22.6439 147.651C25.1684 144.132 26.0099 140.001 26.1629 135.411C26.3159 129.903 26.3159 121.182 26.3159 116.286C26.3159 111.696 26.3924 98.385 26.2394 90.3525C26.1629 88.3635 20.7314 86.298 18.1304 87.369ZM236.691 126.002C236.461 130.286 235.543 133.651 234.396 136.023C232.101 140.613 227.358 141.99 225.369 135.411C224.298 131.815 224.221 125.849 224.986 120.8C225.751 115.674 228.046 111.849 231.718 112.232C235.39 112.614 237.073 117.281 236.691 126.002ZM175.108 152.623C175.032 159.738 173.961 166.011 171.513 167.771C168.07 170.371 163.557 168.382 164.475 163.18C165.316 158.59 169.294 153.848 175.108 148.11C175.108 148.187 175.108 149.487 175.108 152.623ZM174.114 125.925C173.884 129.826 172.89 133.728 171.819 135.947C169.524 140.537 164.781 141.99 162.792 135.335C161.415 130.821 161.797 125.007 162.409 121.335C163.251 116.592 165.393 112.155 169.141 112.155C172.89 112.232 174.649 116.286 174.114 125.925ZM138.465 125.925C138.235 130.056 137.47 133.498 136.17 136.023C133.798 140.536 129.208 141.99 127.143 135.411C125.689 130.668 126.148 124.242 126.76 120.723C127.678 115.521 129.973 111.849 133.492 112.232C137.164 112.614 138.924 117.281 138.465 125.925ZM302.022 130.745C301.104 130.745 300.721 131.662 300.415 133.193C299.268 138.548 298.044 139.772 296.437 139.772C294.678 139.772 293.071 137.094 292.689 131.739C292.383 127.532 292.383 119.805 292.842 112.155C292.918 110.549 292.459 109.019 288.252 107.489C286.416 106.8 283.815 105.882 282.438 109.019C278.689 118.046 277.236 125.16 276.93 128.067C276.93 128.22 276.7 128.22 276.7 127.914C276.471 125.619 276.012 121.335 275.935 112.461C275.935 110.702 275.553 109.248 273.64 108.024C272.416 107.259 268.668 105.882 267.291 107.489C266.143 108.866 264.766 112.461 263.313 116.745C262.165 120.264 261.4 122.635 261.4 122.635C261.4 122.635 261.4 113.226 261.4 109.631C261.4 108.254 260.482 107.795 260.176 107.718C258.952 107.336 256.428 106.724 255.433 106.724C254.133 106.724 253.827 107.412 253.827 108.483C253.827 108.636 253.597 120.876 253.597 129.444C253.597 129.827 253.597 130.209 253.597 130.668C252.909 134.646 250.537 140.001 248.013 140.001C245.488 140.001 244.264 137.783 244.264 127.532C244.264 121.565 244.417 118.964 244.494 114.68C244.57 112.232 244.647 110.319 244.647 109.86C244.647 108.56 242.352 107.871 241.281 107.642C240.21 107.412 239.292 107.259 238.527 107.336C237.532 107.412 236.767 108.101 236.767 109.019C236.767 109.554 236.767 110.472 236.767 110.472C235.467 108.407 233.325 106.953 231.871 106.494C228.046 105.347 224.068 106.341 221.008 110.549C218.637 113.915 217.183 117.663 216.571 123.171C216.189 127.149 216.265 131.203 217.03 134.646C216.112 138.471 214.506 140.078 212.67 140.078C210.069 140.078 208.156 135.793 208.386 128.373C208.539 123.477 209.533 120.035 210.604 115.062C211.063 112.92 210.681 111.849 209.763 110.778C208.921 109.784 207.085 109.325 204.484 109.937C202.648 110.396 199.971 110.855 197.523 111.237C197.523 111.237 197.676 110.625 197.752 109.631C198.364 104.199 192.474 104.658 190.638 106.418C189.49 107.412 188.725 108.636 188.496 110.855C188.037 114.297 190.867 115.98 190.867 115.98C189.949 120.264 187.654 125.772 185.283 129.827C184.059 131.969 183.064 133.575 181.84 135.258C181.84 134.646 181.84 133.957 181.84 133.345C181.84 124.395 181.917 117.357 181.993 114.833C182.07 112.385 182.146 110.472 182.146 110.09C182.146 109.095 181.534 108.789 180.387 108.254C179.316 107.871 178.092 107.565 176.791 107.489C175.185 107.336 174.19 108.254 174.19 109.248C174.19 109.478 174.19 110.625 174.19 110.625C172.89 108.56 170.748 107.106 169.294 106.647C165.469 105.5 161.491 106.494 158.431 110.702C156.06 114.068 154.453 118.734 153.994 123.248C153.612 127.455 153.688 131.051 154.224 134.034C153.612 137.018 151.852 140.154 149.863 140.154C147.339 140.154 145.885 137.936 145.885 127.685C145.885 121.718 146.038 119.117 146.115 114.833C146.191 112.385 146.268 110.472 146.268 110.013C146.268 108.713 143.973 108.024 142.902 107.795C141.754 107.565 140.836 107.412 140.071 107.489C139.077 107.565 138.388 108.407 138.388 109.095V110.625C137.088 108.56 134.946 107.106 133.492 106.647C129.667 105.5 125.689 106.571 122.629 110.702C120.64 113.456 119.034 116.515 118.192 123.171C117.963 125.083 117.886 126.919 117.886 128.603C117.121 133.422 113.602 139.007 110.772 139.007C109.089 139.007 107.482 135.794 107.482 128.832C107.482 119.652 108.018 106.571 108.171 105.27C108.171 105.27 111.766 105.194 112.455 105.194C114.214 105.194 115.897 105.194 118.269 105.117C119.493 105.041 120.64 100.757 119.416 100.221C118.881 99.9915 114.903 99.762 113.296 99.762C111.996 99.762 108.324 99.456 108.324 99.456C108.324 99.456 108.63 90.735 108.706 89.817C108.783 89.052 107.788 88.6695 107.253 88.44C105.876 87.828 104.652 87.5985 103.198 87.2925C101.209 86.91 100.291 87.2925 100.062 88.9755C99.7559 91.5765 99.6794 99.15 99.6794 99.15C98.2259 99.15 93.1004 98.844 91.6469 98.844C90.2699 98.844 88.8164 104.811 90.6524 104.811C92.8709 104.888 96.6959 104.964 99.2204 105.041C99.2204 105.041 99.1439 118.352 99.1439 122.483C99.1439 122.942 99.1439 123.324 99.1439 123.783C97.7669 131.05 92.8709 134.952 92.8709 134.952C93.9419 130.133 91.7999 126.537 87.8984 123.477C86.4449 122.33 83.6144 120.188 80.4779 117.893C80.4779 117.893 82.3139 116.057 83.9204 112.461C85.0679 109.86 85.1444 106.953 82.3139 106.341C77.6474 105.27 73.8224 108.713 72.6749 112.385C71.7569 115.215 72.2924 117.281 73.9754 119.499C74.1284 119.652 74.2049 119.805 74.3579 119.958C73.2869 122.023 71.8334 124.701 70.6094 126.843C67.2434 132.733 64.6424 137.4 62.7299 137.4C61.1999 137.4 61.1999 132.657 61.1999 128.297C61.1999 124.472 61.5059 118.734 61.7354 112.844C61.8119 110.855 60.8174 109.784 59.2109 108.789C58.2164 108.177 56.0744 106.953 54.8504 106.953C53.0144 106.953 47.6594 107.183 42.6104 121.794C41.9984 123.63 40.6979 126.996 40.6979 126.996L40.7744 109.478C40.7744 109.095 40.5449 108.636 40.0859 108.407C39.2444 107.948 36.9494 107.03 34.9604 107.03C33.9659 107.03 33.5069 107.489 33.5069 108.33L33.3539 135.717C33.3539 137.783 33.4304 140.231 33.5834 141.302C33.8129 142.373 34.1189 143.214 34.5014 143.75C34.8839 144.285 35.4194 144.667 36.1844 144.82C36.9494 144.973 40.9274 145.509 41.1569 143.979C41.3864 142.143 41.3864 140.154 43.5284 132.81C46.8179 121.335 51.0254 115.674 53.0909 113.685C53.4734 113.303 53.8559 113.303 53.8559 113.915C53.7794 116.439 53.4734 122.712 53.2439 128.067C52.7084 142.373 55.3094 145.05 59.0579 145.05C61.8884 145.05 65.9429 142.219 70.2269 135.028C72.9044 130.591 75.5054 126.154 77.4179 123.018C78.7184 124.242 80.1719 125.543 81.6254 126.92C84.9914 130.133 86.1389 133.193 85.3739 136.1C84.8384 138.318 82.6964 140.613 78.8714 138.395C77.8004 137.783 77.2649 137.247 76.1939 136.482C75.5819 136.1 74.6639 135.946 74.1284 136.405C72.6749 137.477 71.9099 138.854 71.4509 140.537C70.9919 142.143 72.6749 143.061 74.3579 143.826C75.8114 144.514 78.9479 145.05 81.0134 145.127C88.8164 145.356 95.1659 141.378 99.5265 130.897C100.291 139.924 103.657 145.05 109.395 145.05C113.296 145.05 117.121 140.077 118.804 135.105C119.263 137.094 120.028 138.854 120.946 140.307C125.383 147.345 134.028 145.815 138.388 139.848C139.765 138.012 139.918 137.323 139.918 137.323C140.53 142.984 145.12 144.973 147.721 144.973C150.628 144.973 153.688 143.596 155.754 138.853C155.983 139.389 156.289 139.848 156.595 140.307C161.032 147.345 169.677 145.815 174.037 139.848C174.267 139.542 174.42 139.312 174.573 139.083L174.726 142.832C174.726 142.832 172.278 145.126 170.748 146.503C164.016 152.623 158.967 157.29 158.584 162.722C158.125 169.607 163.71 172.207 167.994 172.513C172.507 172.896 176.332 170.372 178.704 166.929C180.769 163.869 182.146 157.29 182.07 150.711C181.993 148.11 181.993 144.744 181.917 141.225C184.288 138.471 186.889 135.029 189.337 130.974C192.015 126.537 194.845 120.647 196.299 116.057C196.299 116.057 198.747 116.056 201.424 115.903C202.266 115.827 202.495 116.056 202.342 116.668C202.189 117.433 198.976 129.597 201.883 137.706C203.872 143.214 208.309 145.05 210.91 145.05C213.97 145.05 216.954 142.755 218.484 139.236C218.637 139.618 218.866 140.001 219.096 140.307C223.533 147.345 232.177 145.815 236.538 139.848C237.532 138.471 238.068 137.323 238.068 137.323C238.986 143.214 243.576 144.973 246.177 144.973C248.931 144.973 251.455 143.826 253.597 138.93C253.674 141.149 253.827 142.908 254.056 143.443C254.209 143.749 254.974 144.208 255.51 144.438C258.034 145.356 260.559 144.897 261.477 144.744C262.165 144.591 262.624 144.056 262.701 142.755C262.854 139.236 262.777 133.269 263.848 128.832C265.684 121.412 267.291 118.505 268.132 117.128C268.591 116.363 269.05 116.209 269.127 117.051C269.127 118.734 269.28 123.783 269.968 130.515C270.504 135.487 271.192 138.395 271.728 139.313C273.258 141.99 275.094 142.067 276.624 142.067C277.618 142.067 279.607 141.837 279.378 140.078C279.301 139.236 279.454 134.187 281.214 126.843C282.361 122.1 284.274 117.74 285.039 116.21C285.268 115.598 285.421 116.057 285.421 116.21C285.268 119.499 284.962 130.209 286.263 136.1C288.099 144.056 293.301 144.973 295.137 144.973C299.038 144.973 302.251 141.99 303.322 134.187C303.552 132.198 303.169 130.745 302.022 130.745Z" fill="#262626"/>
</svg>
