<?xml version="1.0" standalone="no"?>
<!DOCTYPE svg PUBLIC "-//W3C//DTD SVG 20010904//EN"
 "http://www.w3.org/TR/2001/REC-SVG-20010904/DTD/svg10.dtd">
<svg version="1.0" xmlns="http://www.w3.org/2000/svg"
 width="70.000000pt" height="70.000000pt" viewBox="0 0 70.000000 70.000000"
 preserveAspectRatio="xMidYMid meet">
<metadata>
Created by potrace 1.14, written by Peter Selinger 2001-2017
</metadata>
<g transform="translate(0.000000,70.000000) scale(0.100000,-0.100000)"
fill="#000000" stroke="none">
<path d="M324 588 c-16 -29 -33 -60 -39 -69 -5 -9 -20 -35 -33 -59 -13 -23
-41 -71 -63 -106 -21 -35 -35 -64 -31 -64 4 0 2 -4 -3 -8 -15 -10 -131 -215
-127 -224 1 -5 -3 -8 -10 -8 -6 0 -8 -3 -4 -7 12 -12 126 -10 126 2 0 7 3 7 8
0 9 -13 82 -15 82 -3 0 5 4 7 8 4 4 -3 48 67 97 155 70 125 92 156 101 147 15
-17 134 -221 130 -225 -1 -2 -40 -3 -87 -4 -119 -1 -133 -5 -146 -38 -11 -30
0 -65 15 -46 4 6 14 10 22 10 8 0 18 -4 23 -10 4 -6 10 -5 16 4 8 12 12 12 24
2 9 -7 18 -8 21 -2 7 10 31 9 42 -2 4 -3 16 -1 27 5 16 8 22 8 25 -1 3 -9 8
-9 20 1 13 11 14 11 7 -2 -8 -13 -6 -13 7 -2 13 11 21 11 39 2 16 -9 20 -9 14
-1 -4 8 1 10 17 6 12 -3 29 -1 37 4 11 7 10 14 -6 37 -11 16 -71 117 -133 224
-62 107 -115 197 -116 199 -4 4 -34 -25 -34 -33 0 -3 -36 -69 -80 -147 -44
-77 -80 -144 -80 -150 0 -5 -4 -9 -10 -9 -5 0 -10 -6 -10 -12 0 -24 -18 -40
-44 -43 -30 -4 -35 15 -10 39 8 9 13 16 10 16 -3 0 16 35 41 78 25 42 57 97
71 122 14 25 45 79 69 121 l44 77 -22 36 c-11 20 -22 36 -23 36 -2 0 -16 -24
-32 -52z"/>
</g>
</svg>
