<?xml version="1.0" encoding="UTF-8" standalone="no"?>
<!DOCTYPE svg PUBLIC "-//W3C//DTD SVG 1.1//EN" "http://www.w3.org/Graphics/SVG/1.1/DTD/svg11.dtd">
<svg width="100%" height="100%" viewBox="0 0 320 320" version="1.1" xmlns="http://www.w3.org/2000/svg" xmlns:xlink="http://www.w3.org/1999/xlink" xml:space="preserve" xmlns:serif="http://www.serif.com/" style="fill-rule:evenodd;clip-rule:evenodd;stroke-linejoin:round;stroke-miterlimit:2;">
    <path d="M320,32C320,14.339 305.661,0 288,0L32,0C14.339,0 0,14.339 0,32L0,288C0,305.661 14.339,320 32,320L288,320C305.661,320 320,305.661 320,288L320,32ZM188.2,155.95C200.6,160.75 210.4,167.6 217.6,176.5C224.8,185.4 228.4,195.75 228.4,207.55C228.4,221.35 225.05,232.8 218.35,241.9C211.65,251 202.85,257.7 191.95,262C181.05,266.3 169.1,268.45 156.1,268.45L91.6,268.45L91.6,51.55L147.7,51.55C169.9,51.55 187.1,56.1 199.3,65.2C211.5,74.3 217.6,87.95 217.6,106.15C217.6,117.55 215.05,127.5 209.95,136C204.85,144.5 197.6,151.15 188.2,155.95ZM154.9,241.45C167.5,241.45 177.9,238.6 186.1,232.9C194.3,227.2 198.4,218.85 198.4,207.85C198.4,196.45 193.95,188.05 185.05,182.65C176.15,177.25 165.4,174.55 152.8,174.55L120.7,174.55L120.7,241.45L154.9,241.45ZM120.7,146.35L153.7,146.35C164.9,146.35 173.35,143.15 179.05,136.75C184.75,130.35 187.6,122.15 187.6,112.15C187.6,101.15 184.2,92.95 177.4,87.55C170.6,82.15 161.1,79.45 148.9,79.45L120.7,79.45L120.7,146.35Z" style="fill:rgb(84,116,253);"/>
</svg>
