<?xml version="1.0" standalone="no"?>
<!DOCTYPE svg PUBLIC "-//W3C//DTD SVG 20010904//EN"
 "http://www.w3.org/TR/2001/REC-SVG-20010904/DTD/svg10.dtd">
<svg version="1.0" xmlns="http://www.w3.org/2000/svg"
 width="700.000000pt" height="700.000000pt" viewBox="0 0 700.000000 700.000000"
 preserveAspectRatio="xMidYMid meet">
<metadata>
Created by potrace 1.14, written by Peter Selinger 2001-2017
</metadata>
<g transform="translate(0.000000,700.000000) scale(0.100000,-0.100000)"
fill="#000000" stroke="none">
<path d="M609 6995 c-3 -2 -23 -6 -45 -9 -63 -8 -161 -47 -239 -96 -153 -95
-280 -280 -314 -460 -7 -37 -9 -983 -8 -2960 l2 -2905 21 -61 c83 -240 243
-400 475 -475 l74 -24 2925 0 c2830 0 2927 1 2985 19 211 66 359 193 450 389
70 151 65 -102 62 3117 l-2 2905 -21 61 c-40 116 -101 219 -170 288 -52 52
-119 106 -132 106 -6 0 -12 4 -14 8 -6 14 -117 62 -191 82 -71 19 -124 19
-2963 20 -1590 0 -2893 -2 -2895 -5z m2801 -1129 c312 -16 534 -69 758 -178
339 -165 530 -434 580 -818 14 -112 8 -366 -12 -460 -3 -14 -8 -38 -12 -55
-10 -52 -46 -158 -77 -225 -91 -198 -261 -386 -452 -497 -36 -21 -63 -42 -62
-47 2 -5 20 -15 40 -22 55 -19 104 -43 197 -98 259 -151 447 -352 544 -585
118 -279 107 -680 -28 -985 -21 -48 -102 -184 -116 -196 -3 -3 -14 -16 -23
-30 -57 -83 -227 -231 -352 -306 -174 -104 -455 -193 -693 -218 -28 -3 -76 -8
-105 -12 -78 -8 -1576 -8 -1585 0 -4 4 -7 1071 -7 2371 l-1 2364 56 3 c98 5
1232 0 1350 -6z"/>
<path d="M2683 5262 l-43 -3 0 -730 0 -729 38 0 c20 -1 199 -1 397 -1 414 0
452 3 578 43 148 46 275 153 355 298 27 49 69 161 77 208 44 253 4 491 -108
637 -102 132 -253 214 -482 260 -55 11 -705 25 -812 17z"/>
<path d="M2640 2451 l0 -731 28 -1 c106 -3 791 2 847 6 356 26 637 176 748
397 59 120 71 175 71 333 1 150 -14 217 -69 324 -86 166 -278 291 -553 361
-127 32 -141 32 -614 37 l-458 5 0 -731z"/>
</g>
</svg>
