<svg xmlns="http://www.w3.org/2000/svg" 
xmlns:xlink="http://www.w3.org/1999/xlink">

<symbol id='home' viewBox="0 0 32 32" >
<path class="sketchy_een" d="M29.746,16.243c-0.177-0.171-0.347-0.345-0.514-0.526c-0.222-0.245-0.421-0.512-0.643-0.758
	c-0.565-0.629-1.151-1.237-1.751-1.831c-0.592-0.59-1.204-1.157-1.799-1.743c-0.606-0.596-1.196-1.205-1.778-1.823
	c-0.927-0.985-1.844-1.979-2.791-2.945c-0.479-0.489-0.968-0.968-1.439-1.464c-0.573-0.602-1.141-1.208-1.71-1.813
	c-0.166-0.176-0.396-0.261-0.626-0.261c-0.061,0-0.119,0.022-0.178,0.034c-0.166-0.161-0.388-0.255-0.62-0.255
	c-0.253,0-0.44,0.103-0.627,0.259c-0.703,0.586-1.363,1.219-2.018,1.858c-0.296,0.29-0.582,0.59-0.876,0.88
	c-0.327,0.323-0.662,0.637-0.995,0.954C10.744,7.417,10.09,8.01,9.465,8.631c-0.59,0.59-1.176,1.186-1.799,1.741
	c-0.954,0.845-1.924,1.667-2.83,2.563c-0.434,0.43-0.869,0.857-1.305,1.285c-0.419,0.411-0.826,0.843-1.293,1.204
	C2.078,15.548,2,15.809,2,16.002c0,0.218,0.086,0.427,0.238,0.58c0.154,0.154,0.364,0.241,0.58,0.241
	c0.236,0,0.405-0.097,0.58-0.241c0.323-0.261,0.608-0.565,0.902-0.855c0.284-0.28,0.567-0.555,0.855-0.83
	c0.192-0.183,0.388-0.362,0.579-0.546c0,0.348,0,0.695-0.017,1.044c-0.037,0.802-0.117,1.599-0.13,2.403
	c-0.025,1.659-0.031,3.315-0.018,4.974c0.006,0.966-0.021,1.93-0.043,2.894c-0.01,0.427-0.002,0.857,0.012,1.285
	c0.014,0.43,0.01,0.861,0.029,1.291c0.018,0.45,0.362,0.828,0.828,0.828c0.116,0,0.228-0.029,0.332-0.076
	c0.818,0.075,1.637,0.082,2.459,0.069c0.837-0.012,1.675-0.006,2.512,0.002c1.692,0.016,3.381,0.021,5.071,0.058
	c0.927,0.021,1.856,0.018,2.785,0.018c0.518-0.002,1.04-0.002,1.56,0c0.691,0.002,1.381-0.008,2.072-0.016
	c0.354-0.004,0.707,0,1.061,0.002c0.095,0.002,0.191,0,0.288,0c0.211-0.004,0.422-0.006,0.632,0.009
	c0.189,0.019,0.365,0.001,0.542-0.102c0.191-0.111,0.333-0.296,0.393-0.508c0.029-0.109,0.036-0.222,0.022-0.333
	c0.013-0.058,0.035-0.112,0.035-0.173c-0.014-1.505-0.068-3.007-0.093-4.512c-0.014-0.797-0.047-1.599-0.039-2.399
	c0.006-0.75,0.008-1.498,0.016-2.249c0.013-1.385,0.024-2.771,0.04-4.157c0.266,0.264,0.531,0.528,0.79,0.799
	c0.299,0.314,0.599,0.629,0.873,0.964c0.075,0.107,0.143,0.22,0.218,0.329c0.114,0.168,0.248,0.322,0.374,0.481
	c0.054,0.071,0.108,0.141,0.167,0.208c0.31,0.366,0.923,0.319,1.242,0C30.079,17.152,30.09,16.576,29.746,16.243z M15.713,27.484
	c-0.636-0.024-1.273-0.037-1.909-0.049c-0.032-1.136-0.053-2.274-0.081-3.412c-0.016-0.641-0.012-1.285-0.025-1.926
	c-0.01-0.568-0.051-1.136-0.097-1.704c0.796,0.019,1.591,0.03,2.385,0.083c0.401,0.029,0.797,0.062,1.198,0.078
	c0.178,0.007,0.357-0.002,0.536-0.004c0.016,1.056,0.034,2.113,0.078,3.168c0.025,0.635,0.025,1.27,0.049,1.903
	c0.026,0.638,0.067,1.275,0.114,1.911C17.212,27.53,16.462,27.512,15.713,27.484z M23.047,27.457
	c-0.789,0.006-1.579,0.043-2.37,0.053c-0.33,0.005-0.661,0.007-0.991,0.011c-0.091-1.256-0.13-2.513-0.188-3.772
	c-0.033-0.67-0.076-1.338-0.078-2.008c-0.002-0.734,0.01-1.466,0.012-2.199c0.002-0.473-0.397-0.867-0.867-0.867
	c-0.219,0-0.418,0.091-0.572,0.229c-0.269-0.001-0.538,0-0.808-0.01c-0.401-0.019-0.8-0.047-1.198-0.08
	c-0.985-0.084-1.973-0.117-2.962-0.158c-0.011,0-0.022-0.001-0.033-0.001c-0.388,0-0.702,0.306-0.791,0.669
	c-0.043,0.029-0.092,0.048-0.129,0.085c-0.15,0.152-0.28,0.405-0.257,0.625c0.066,0.689,0.132,1.373,0.162,2.064
	c0.031,0.641,0.027,1.285,0.045,1.926c0.018,0.621,0.051,1.241,0.062,1.862c0.009,0.509,0.005,1.02,0.03,1.53
	c-0.302-0.002-0.604-0.007-0.905-0.008c-0.312,0-0.625,0.002-0.935,0.002c-1.023,0.005-2.046-0.01-3.066-0.087
	c-0.001-0.044-0.001-0.087-0.002-0.131c-0.014-0.364-0.029-0.728-0.033-1.091c-0.012-0.804,0.012-1.605,0.018-2.409
	c0.012-1.669,0.008-3.336,0.049-5.005c0.023-0.956,0.041-1.911,0.109-2.865c0.037-0.501,0.072-1.001,0.092-1.502
	c0.021-0.507,0.001-1.012-0.03-1.518c0.541-0.464,1.089-0.918,1.616-1.399c0.621-0.567,1.211-1.169,1.813-1.757
	c0.909-0.888,1.87-1.718,2.773-2.615c0.813-0.808,1.654-1.586,2.528-2.327c0.669,0.699,1.341,1.39,2.033,2.064
	c0.643,0.625,1.291,1.241,1.912,1.889c1.18,1.227,2.339,2.473,3.544,3.675c0.378,0.378,0.769,0.745,1.158,1.113
	c-0.221,0.152-0.376,0.395-0.379,0.679c-0.004,0.861,0.002,1.72,0.004,2.579c0.002,0.812-0.012,1.624-0.021,2.438
	c-0.006,0.746-0.002,1.494,0.008,2.243c0.01,0.806,0.062,1.611,0.07,2.419c0.006,0.721,0.041,1.443,0.041,2.167
	c-0.001,0.488-0.004,0.978-0.009,1.467c-0.085,0.002-0.171,0.002-0.256,0.003C23.846,27.445,23.447,27.453,23.047,27.457z
	 M15.375,15.331c-0.002,0-0.003,0-0.005,0c0,0-0.001,0-0.001,0C15.371,15.33,15.373,15.33,15.375,15.331z M15.293,15.32
	c0.026,0.003,0.051,0.007,0.076,0.01c0,0,0,0,0,0C15.343,15.327,15.318,15.323,15.293,15.32z M17.767,11.668
	c-0.151-0.287-0.367-0.516-0.628-0.691c-0.022-0.076-0.053-0.149-0.093-0.218c-0.113-0.195-0.337-0.397-0.569-0.438
	c-0.195-0.033-0.391-0.07-0.588-0.09c-0.07-0.007-0.139-0.01-0.207-0.01c-0.167,0-0.33,0.019-0.502,0.045
	c-0.388,0.06-0.707,0.261-1.007,0.499c-0.567,0.452-0.859,1.178-0.939,1.883c-0.029,0.234-0.021,0.448,0.018,0.682
	c0.043,0.259,0.144,0.497,0.269,0.728c0.109,0.201,0.275,0.386,0.43,0.553c0.179,0.193,0.411,0.364,0.654,0.471
	c0.125,0.057,0.253,0.113,0.384,0.16c0.124,0.047,0.251,0.07,0.38,0.088c0.001,0,0.001,0,0.002,0c0.279,0.035,0.525,0.051,0.815,0
	c0.37-0.068,0.724-0.236,1.013-0.477c0.397-0.331,0.68-0.785,0.82-1.283c0.056-0.203,0.088-0.419,0.099-0.631
	c0.016-0.331-0.056-0.652-0.191-0.952C17.876,11.879,17.823,11.772,17.767,11.668z M16.52,12.978
	c-0.021,0.098-0.047,0.194-0.08,0.289c-0.03,0.055-0.061,0.109-0.096,0.161c-0.045,0.049-0.092,0.096-0.142,0.143
	c-0.04,0.026-0.081,0.05-0.124,0.073c-0.046,0.015-0.093,0.029-0.14,0.041c-0.046,0.002-0.092,0.002-0.139,0.001
	c-0.076-0.016-0.15-0.036-0.225-0.06c-0.075-0.04-0.147-0.082-0.218-0.129c-0.048-0.046-0.093-0.092-0.136-0.141
	c-0.053-0.076-0.101-0.155-0.145-0.237c-0.005-0.016-0.009-0.032-0.014-0.049c-0.003-0.062-0.003-0.123,0-0.186
	c0.028-0.133,0.065-0.261,0.11-0.388c0.039-0.074,0.081-0.144,0.126-0.213c0.026-0.028,0.054-0.056,0.083-0.082
	c0.042-0.027,0.085-0.053,0.129-0.078c0.088-0.005,0.176-0.006,0.265,0c0.066,0.012,0.131,0.025,0.198,0.037
	c0.05,0.009,0.098,0.016,0.146,0.021c0.001,0.001,0.002,0.001,0.004,0.002c0.052,0.024,0.101,0.051,0.15,0.081
	c0.021,0.019,0.041,0.039,0.061,0.06c0.048,0.083,0.091,0.168,0.132,0.254c0.024,0.066,0.044,0.131,0.059,0.199
	C16.525,12.845,16.524,12.911,16.52,12.978z"/>
</symbol>

<symbol id='about' viewBox="0 0 32 32" >
<path class="sketchy_een" d="M17.081,26.681c-0.77-0.01-1.539-0.015-2.309-0.015c0,0-0.45,0-0.451,0
	c-0.967,0-1.875-0.024-2.798-0.071c-0.399-0.021-0.8-0.022-1.2-0.024l-1.687-0.014l-1.471,0.004l-1.363,0.012l-1.376-0.001
	c-0.511,0-1.022-0.004-1.534-0.025c-0.446-0.018-0.797-0.366-0.798-0.792v-0.027L2.056,25.66c-0.071-0.31-0.06-0.573-0.047-0.852
	c0.004-0.107,0.009-0.214,0.01-0.322l0.008-1.045c0.008-0.691,0.026-1.38,0.046-2.07l0.021-0.693c0.017-0.52,0.033-1.04,0.035-1.56
	c0.001-0.39-0.01-2.163-0.01-2.163l0.004-2.592c0.002-0.433,0.008-0.868,0.024-1.3c0.008-0.268,0.025-0.534,0.041-0.8l0.029-0.488
	c0.023-0.446,0.034-0.893,0.046-1.34c0.009-0.376,0.019-0.752,0.036-1.128l0.027-0.676C2.351,7.96,2.377,7.288,2.423,6.616
	C2.432,6.481,2.474,6.355,2.552,6.23C2.606,5.825,2.9,5.557,3.283,5.535c0.96-0.058,1.922-0.087,2.883-0.117l1.078-0.034
	C7.921,5.359,8.6,5.353,9.277,5.346l0.739-0.008c0.921-0.014,1.842-0.022,2.764-0.022c1.135,0,2.221,0.039,3.306,0.078
	c0.768,0.028,1.536,0.056,2.304,0.069c0.188,0.003,0.376,0.004,0.565,0.004c0.403,0,0.808-0.006,1.211-0.012l0.922-0.012
	l0.998-0.004c0.589,0,1.177,0.005,1.765,0.016l0.285,0.004c0.324,0.005,0.647,0.01,0.972,0.028l0.464,0.027
	c0.341,0.02,0.683,0.04,1.025,0.055c0.101,0.006,0.205,0.006,0.31,0.006c0.118,0,0.238,0,0.357,0.006
	c0.205,0.013,0.412,0.031,0.619,0.051c0.13,0.013,0.26,0.022,0.39,0.031c0.196,0.014,0.392,0.028,0.586,0.054
	c0.175,0.001,0.321,0.04,0.458,0.12c0.133,0.078,0.24,0.185,0.319,0.317c0.107,0.186,0.14,0.412,0.09,0.636
	c0.029,0.142,0.046,0.202,0.046,0.261c-0.015,0.711-0.029,1.424-0.036,2.139c-0.006,0.481,0.003,0.961,0.012,1.441
	c0,0,0.02,1.299,0.024,1.691c0.007,0.829,0.015,1.657,0.058,2.485c0,0,0.068,1.044,0.08,1.287c0.017,0.343,0.028,0.686,0.038,1.028
	l0.01,0.308c0.026,0.883,0.051,1.769,0.037,2.655c-0.005,0.366-0.02,0.734-0.033,1.101c-0.02,0.509-0.039,1.018-0.034,1.526
	l0.002,0.267c0.007,0.739,0.013,1.503-0.087,2.251l-0.005,0.034l0.048,0.086c0.134,0.42,0,0.89-0.347,1.053
	c-0.273,0.128-0.577,0.188-0.957,0.188c-0.247-0.004-0.412-0.01-0.576-0.017c-0.166-0.006-0.331-0.013-0.498-0.016l-0.4-0.002
	c-0.333,0-0.667,0.005-1,0.01l-0.649,0.008c-0.602,0.004-1.203,0.019-1.804,0.034l-1.013,0.024H21.25c0,0-2.092,0.027-2.425,0.033
	c-0.449,0.008-0.897,0.017-1.346,0.017L17.081,26.681z M8.839,6.75c-1.653,0-3.274,0.095-4.926,0.201L3.825,6.956L3.819,7.043
	C3.772,7.666,3.725,8.289,3.702,8.914c-0.013,0.388-0.017,0.775-0.021,1.163c-0.003,0.311-0.006,0.622-0.015,0.933l-0.028,0.862
	c-0.015,0.448-0.03,0.897-0.038,1.344c-0.007,0.506-0.007,1.012-0.007,1.518l-0.003,1.27c-0.004,1.499-0.009,2.998-0.039,4.499
	c-0.009,0.427-0.023,0.855-0.037,1.283c-0.034,1.019-0.069,2.072-0.031,3.109l0.003,0.092l0.092,0.004
	c0.527,0.025,1.054,0.047,1.582,0.047c0.411,0,0.822-0.013,1.231-0.048c0.741-0.062,1.497-0.069,2.227-0.077l0.675-0.008
	c0.419-0.008,0.838-0.011,1.256-0.011c0.528,0,1.056,0.005,1.584,0.016c0.546,0.01,1.092,0.01,1.638,0.011
	c0.399,0,1.649,0.007,1.649,0.007s1.855-0.014,2.268-0.014l1.496,0.01c0.731,0.006,1.461,0.012,2.191,0.012
	c0.616,0,1.231-0.004,1.845-0.016l0.629-0.013c0.725-0.015,1.451-0.03,2.177-0.03l1.745,0.014l0.494-0.014l0.076-0.383
	c0.038-0.382,0.045-0.757,0.052-1.133l0.028-1.158c0.004-0.136,0.012-0.271,0.021-0.407c0.009-0.151,0.018-0.303,0.021-0.455
	c0.029-1.279,0.031-2.407,0.008-3.451c-0.015-0.766-0.06-1.599-0.141-2.622c-0.064-0.811-0.125-1.684-0.138-2.57l-0.003-0.631
	c0-0.246,0-0.493-0.005-0.74c-0.004-0.257-0.038-1.351-0.038-1.351c-0.017-0.836-0.023-1.672-0.02-2.508l0.001-0.09l-0.09-0.01
	c-0.694-0.08-1.435-0.135-2.33-0.177c-0.502-0.023-1.003-0.04-1.505-0.058l-1.198-0.044c-0.791-0.032-1.585-0.034-2.377-0.035
	l-0.388-0.001c-0.923-0.002-1.847-0.016-2.769-0.041c-0.291-0.008-0.582-0.03-0.873-0.051l-1.856-0.114
	c-0.653-0.043-1.307-0.047-1.961-0.05c-0.288-0.002-0.577-0.003-0.865-0.008c-0.924-0.018-1.85-0.031-2.773-0.037L8.839,6.75z
	 M11.739,21.347c-0.429,0-0.853-0.008-1.28-0.015L9.91,21.323c-0.888-0.013-1.807-0.027-2.703-0.118
	c-0.251-0.026-0.454-0.08-0.631-0.258c-0.165-0.164-0.259-0.391-0.259-0.623c0-0.09,0.027-0.181,0.055-0.266
	c0.045-0.871,0.112-1.514,0.222-2.109l0.023-0.124c0.105-0.577,0.214-1.174,0.497-1.675c0.241-0.425,0.571-0.793,0.953-1.063
	l0.095-0.067L8.08,14.934c-0.292-0.319-0.562-0.668-0.64-1.082c-0.019-0.105-0.036-0.211-0.051-0.317
	c-0.035-0.217-0.059-0.363-0.053-0.475c0.021-0.403,0.129-0.791,0.323-1.154c0.209-0.391,0.501-0.703,0.894-0.951
	c0.285-0.181,0.641-0.318,1.087-0.419c0.25-0.056,0.453-0.082,0.639-0.082c0.621,0.03,1.176,0.331,1.55,0.787
	c0.326,0.398,0.518,0.884,0.606,1.53c0.023,0.18,0.029,0.356,0.015,0.538c-0.006,0.076-0.014,0.15-0.023,0.228
	c-0.027,0.22-0.066,0.364-0.154,0.571c-0.09,0.211-0.225,0.386-0.367,0.571l-0.069,0.09l0.022,0.143
	c0.256,0.152,0.467,0.288,0.625,0.455c0.282,0.301,0.539,0.704,0.786,1.231c0.215,0.462,0.353,0.896,0.42,1.324
	c0.069,0.45,0.132,0.893,0.142,1.343l0.007,0.358c0.005,0.307,0.011,0.614,0.027,0.922c0.009,0.185-0.062,0.369-0.203,0.516
	c-0.151,0.158-0.364,0.253-0.57,0.253l-0.113-0.02C12.567,21.344,12.14,21.347,11.739,21.347z M10.045,16.044
	c-0.307,0.048-0.629,0.107-0.952,0.215c-0.065,0.034-0.112,0.062-0.158,0.093c-0.112,0.098-0.205,0.193-0.293,0.294
	c-0.089,0.131-0.159,0.254-0.225,0.383c-0.097,0.276-0.157,0.551-0.214,0.825c-0.052,0.236-0.093,0.473-0.129,0.713
	c-0.029,0.288-0.046,0.572-0.059,0.857L8.012,19.52l0.096,0.008c0.941,0.083,1.663,0.123,2.34,0.132l0.488,0.002l1.37-0.007
	l-0.003-0.103c-0.009-0.309-0.027-0.618-0.06-0.924c-0.066-0.439-0.154-0.803-0.279-1.149c-0.145-0.319-0.321-0.629-0.524-0.929
	c-0.044-0.049-0.079-0.084-0.116-0.118c-0.102-0.071-0.202-0.132-0.304-0.188l0.006-0.017l-0.111-0.047l-0.003,0.006
	c-0.016-0.008-0.032-0.016-0.048-0.024c-0.154-0.054-0.297-0.09-0.444-0.119c-0.072-0.006-0.132-0.008-0.192-0.008
	C10.166,16.036,10.106,16.039,10.045,16.044z M10.156,11.969c-0.192,0.041-0.362,0.096-0.53,0.16
	c-0.099,0.05-0.184,0.099-0.268,0.154c-0.067,0.057-0.12,0.107-0.171,0.162c-0.052,0.077-0.089,0.141-0.123,0.208
	c-0.043,0.115-0.075,0.219-0.1,0.329c-0.002,0.083,0.001,0.142,0.006,0.2c0.025,0.139,0.053,0.264,0.092,0.389l0.069,0.119
	c0.075,0.083,0.143,0.15,0.215,0.212c0.16,0.117,0.318,0.219,0.486,0.305l0.288,0.117l0.05-0.052
	c0.172-0.18,0.339-0.364,0.498-0.556c0.064-0.089,0.12-0.173,0.169-0.263c0.039-0.27,0.043-0.46,0.027-0.653
	c-0.028-0.146-0.061-0.279-0.105-0.41c-0.04-0.077-0.074-0.134-0.112-0.19c-0.005-0.005-0.01-0.011-0.015-0.016l0.016-0.01
	l-0.017,0.008c-0.007-0.007-0.014-0.015-0.021-0.022l0.006-0.004l-0.083-0.07l-0.137-0.084l-0.116-0.036h-0.014L10.156,11.969z
	 M16.803,17.827c-0.215,0-0.42-0.088-0.577-0.248c-0.154-0.157-0.243-0.37-0.243-0.583c0-0.454,0.373-0.827,0.832-0.83
	c0,0,2.418,0.013,2.798,0.013l1.266-0.012c0.29-0.005,0.58-0.01,0.871-0.01c0.16,0,0.809,0.017,0.972,0.017
	c0.204,0,0.406-0.007,0.609-0.028c0.001,0,0.002,0,0.004,0c0.226,0,0.424,0.115,0.539,0.23c0.146,0.146,0.229,0.347,0.229,0.552
	c0,0.424-0.345,0.768-0.786,0.782c-0.129,0.004-0.782,0.006-0.782,0.006l-0.787,0.022c-0.306,0.007-0.61,0.008-0.915,0.008l-0.611,0
	c-0.627,0.001-1.253,0.022-1.88,0.042c-0.51,0.017-1.02,0.033-1.53,0.039H16.803z M17.363,14.234c-0.413,0-0.763-0.352-0.763-0.769
	s0.348-0.769,0.76-0.769l0.293,0.001c1.003,0,1.919-0.041,2.798-0.125c0.294-0.029,0.588-0.045,0.883-0.061l0.417-0.025
	c0.22-0.012,0.446-0.031,0.668-0.056c0.049-0.006,0.096-0.008,0.145-0.008c0.132,0,0.277,0.018,0.457,0.058
	c0.189,0.043,0.353,0.167,0.462,0.348c0.119,0.198,0.156,0.44,0.099,0.649c-0.057,0.203-0.193,0.38-0.374,0.485
	c-0.128,0.074-0.263,0.11-0.408,0.11c-0.145-0.018-0.3-0.025-0.455-0.025c-0.174,0-0.348,0.008-0.523,0.017l-0.421,0.017
	c-0.331,0.012-0.665,0.025-0.995,0.042c-0.233,0.012-1.182,0.042-1.422,0.054c-0.538,0.028-1.078,0.054-1.617,0.056H17.363z"/>
</symbol>

<symbol id='gallery' viewBox="0 0 32 32" >
<path class="sketchy_een" d="M28.406,23.485c-0.039-0.841-0.061-1.681-0.067-2.522c-0.014-1.744-0.004-3.489-0.02-5.231
	c-0.008-0.86-0.004-1.723-0.014-2.583c-0.004-0.435,0.002-0.872-0.008-1.309c-0.008-0.431-0.039-0.862-0.055-1.296
	c-0.031-0.88-0.043-1.762-0.055-2.642c-0.01-0.854-0.053-1.705-0.069-2.557c-0.016-0.827,0.006-1.654,0.01-2.481
	c0.002-0.451-0.378-0.829-0.827-0.829c-0.166,0-0.314,0.064-0.446,0.151c-0.019-0.001-0.035-0.011-0.054-0.011
	c-0.384,0.008-0.766-0.01-1.15-0.018c-0.396-0.008-0.79-0.006-1.185-0.012c-0.382-0.004-0.766-0.006-1.148-0.026
	c-0.4-0.018-0.799-0.043-1.199-0.055c-1.638-0.049-3.278-0.067-4.916-0.031c-0.683,0.014-1.366,0.045-2.05,0.043
	c-0.687-0.002-1.376-0.01-2.063-0.037c-0.341-0.012-0.681-0.034-1.022-0.037C11.992,2,11.916,2,11.839,2
	c-0.253,0-0.507,0.004-0.761,0.007c-0.805,0.01-1.609,0.027-2.414,0.051c-0.11,0.003-0.215,0.027-0.312,0.068
	C8.267,2.095,8.178,2.071,8.084,2.071c-0.445,0-0.795,0.366-0.803,0.805C7.266,3.694,7.262,4.512,7.258,5.33
	C6.935,5.348,6.612,5.352,6.289,5.348C5.876,5.342,5.462,5.333,5.048,5.327C5.002,5.304,4.962,5.272,4.912,5.258
	c-0.074-0.02-0.15-0.03-0.225-0.03c-0.15,0-0.299,0.039-0.429,0.116c-0.175,0.102-0.352,0.299-0.39,0.506
	C3.774,6.373,3.703,6.898,3.658,7.426C3.623,7.838,3.641,8.255,3.646,8.668c0.014,0.878,0.026,1.756,0.02,2.634
	c-0.006,0.862-0.012,1.725,0.006,2.587c0.018,0.853,0.039,1.705,0.047,2.558c0.012,1.731-0.033,3.457-0.063,5.186
	c-0.016,0.878-0.012,1.756-0.016,2.634c-0.004,0.429-0.006,0.858-0.018,1.288c-0.012,0.402,0,0.805-0.016,1.207
	c-0.023,0.507-0.03,1.018-0.078,1.525c-0.081,0.184-0.098,0.395-0.044,0.59c0.046,0.168,0.169,0.344,0.322,0.454
	c0.095,0.339,0.397,0.597,0.763,0.597c0.827,0,1.652-0.051,2.479-0.085c0.805-0.033,1.611-0.031,2.416-0.033
	c1.579-0.002,3.16-0.012,4.741,0.006c1.575,0.018,3.15,0.004,4.725,0.024c0.789,0.012,1.581,0.03,2.369,0.075
	c0.368,0.02,0.734,0.039,1.103,0.057c0.343,0.016,0.687,0.01,1.03,0.024c0.028,0.002,0.053,0.002,0.079,0.004
	c0.159,0.008,0.3-0.054,0.424-0.141c0.16-0.031,0.312-0.094,0.429-0.21c0.219-0.219,0.268-0.504,0.211-0.797
	c-0.003-0.017-0.006-0.034-0.009-0.052c-0.037-0.429-0.012-0.864-0.001-1.293c0.013-0.445,0.037-0.891,0.059-1.337
	c0.222,0.009,0.445,0.017,0.667,0.026c0.557,0.024,1.112,0.076,1.667,0.122c0.022,0.03,0.03,0.063,0.059,0.091
	c0.167,0.167,0.398,0.264,0.634,0.264s0.465-0.096,0.632-0.264c0.156-0.154,0.284-0.408,0.262-0.632
	C28.475,25.015,28.442,24.249,28.406,23.485z M22.468,28.42c-0.38,0.002-0.76,0.006-1.14,0.004
	c-0.366-0.002-0.734-0.022-1.101-0.028c-0.408-0.006-0.815-0.014-1.223-0.02c-0.457-0.008-0.914,0-1.37,0.006
	c-0.329,0.006-0.658,0.012-0.986,0.01c-0.792-0.004-1.581-0.018-2.372-0.037c-0.803-0.02-1.609-0.01-2.412-0.016
	c-0.782-0.008-1.561-0.006-2.343-0.008c-0.819,0-1.638-0.002-2.457-0.008c-0.35-0.002-0.701,0-1.051,0
	c-0.247,0.001-0.494-0.002-0.741-0.002c0.002-0.157,0.003-0.315,0.005-0.472c0.006-0.404,0.022-0.809,0.03-1.215
	c0.014-0.823,0.012-1.644,0.002-2.467c-0.018-1.731,0.01-3.461,0.026-5.192c0.016-1.77-0.03-3.54-0.041-5.31
	c-0.012-1.729-0.022-3.459-0.03-5.19c0-0.396,0.027-0.79,0.073-1.182c0.018-0.119,0.04-0.236,0.06-0.354
	c0.274-0.003,0.547-0.005,0.821-0.008c0.217-0.002,0.433-0.004,0.648-0.004c0.059,0,0.118,0.002,0.177,0.002
	C7.11,6.931,7.179,6.926,7.247,6.924C7.245,7.426,7.244,7.928,7.238,8.43c-0.022,1.76,0.035,3.518-0.004,5.279
	c-0.02,0.817-0.057,1.634-0.057,2.451c0,0.872,0.016,1.742,0.041,2.615c0.026,0.839,0.071,1.676,0.1,2.512
	c0.031,0.845,0.026,1.689,0.045,2.534c0.01,0.398,0,0.797,0.091,1.185c0.068,0.286,0.296,0.484,0.562,0.576
	c0.149,0.219,0.389,0.371,0.671,0.378c0.914,0.018,1.827,0.004,2.741-0.024c0.847-0.026,1.691-0.031,2.538-0.031
	c0.28,0.002,0.561,0.002,0.843,0.002c1.36,0,2.719,0,4.079,0.037c0.717,0.02,1.431,0.089,2.148,0.112
	c0.657,0.021,1.316,0.028,1.973,0.053c-0.022,0.772-0.028,1.545-0.036,2.318c-0.02,0-0.04,0-0.06,0
	C22.766,28.422,22.616,28.42,22.468,28.42z M24.929,24.55c-0.784-0.02-1.567-0.059-2.351-0.065
	c-0.851-0.008-1.697-0.018-2.548-0.069c-0.825-0.049-1.654-0.073-2.483-0.079c-0.74-0.004-1.481,0.008-2.223,0.008
	c-0.699,0-1.4,0-2.099,0.004c-0.709,0.004-1.42,0.012-2.128,0.012c-0.661,0-1.322-0.023-1.983-0.044
	c-0.042-0.702-0.046-1.403-0.066-2.106c-0.024-0.858-0.075-1.719-0.124-2.577c-0.094-1.705-0.102-3.422-0.073-5.131
	c0.008-0.402,0.031-0.803,0.026-1.205c-0.004-0.445-0.02-0.89-0.031-1.335c-0.022-0.88-0.035-1.76-0.037-2.638
	c0-1.811-0.004-3.621,0.049-5.43C8.86,3.818,8.862,3.743,8.865,3.667c0.862-0.032,1.723-0.073,2.584-0.097
	c0.409-0.012,0.817-0.006,1.225,0.018c0.39,0.024,0.782,0.059,1.173,0.071c0.825,0.026,1.648,0.018,2.473,0.008
	c0.51-0.006,1.02-0.006,1.53-0.006c0.307,0,0.612,0,0.919-0.002c1.357-0.004,2.721,0.002,4.074,0.099
	c0.662,0.047,1.325,0.047,1.989,0.051c0.552,0.003,1.103,0.014,1.655,0.031c0.018,1.46,0.051,2.92,0.054,4.38
	c0,0.415-0.008,0.831-0.012,1.246c-0.004,0.447,0.014,0.892,0.022,1.337c0.016,0.876,0.039,1.75,0.035,2.625
	c-0.006,1.748-0.012,3.499-0.016,5.247c-0.002,1.693-0.018,3.388,0.067,5.078c0.015,0.295,0.035,0.588,0.052,0.883
	C26.102,24.6,25.515,24.564,24.929,24.55z M24.802,13.413c-0.028-1.54-0.1-3.077-0.13-4.615c-0.018-0.896,0.006-1.792,0.033-2.686
	c0.012-0.396-0.339-0.724-0.725-0.724c-0.04,0-0.073,0.016-0.111,0.022c-0.126-0.087-0.271-0.157-0.419-0.157
	c-0.016,0-0.031,0.001-0.047,0.002c-0.514,0.047-1.028,0.045-1.544,0.043c-0.232,0-0.465,0-0.695,0.002
	c-0.463,0.008-0.923,0.004-1.384-0.002c-0.346-0.002-0.693-0.006-1.038-0.006c-0.878,0.004-1.758,0.03-2.636,0.045
	C15.304,5.352,14.503,5.34,13.7,5.332c-0.742-0.008-1.485-0.014-2.227-0.016c-0.259,0-0.483,0.135-0.633,0.329
	c-0.139,0.139-0.226,0.33-0.228,0.54c-0.016,1.62-0.043,3.241-0.037,4.861c0.006,1.542-0.071,3.077-0.169,4.615
	c-0.043,0.709-0.055,1.422-0.132,2.126c-0.022,0.201,0.098,0.433,0.236,0.571c0.082,0.082,0.183,0.14,0.292,0.179
	c0.114,0.063,0.238,0.108,0.376,0.109c0.429,0.004,0.858,0.004,1.288,0.002c0.469-0.002,0.937-0.002,1.406,0.002
	c0.858,0.01,1.717,0.008,2.575,0.008c0.845,0,1.687,0.002,2.532,0.016c0.856,0.014,1.709,0.055,2.563,0.091
	c0.79,0.031,1.585,0.041,2.375,0.114c0.215,0.02,0.455-0.102,0.602-0.25c0.048-0.048,0.076-0.11,0.111-0.168
	c0.185-0.146,0.313-0.36,0.307-0.607c-0.02-0.709-0.075-1.416-0.093-2.125C24.825,14.958,24.815,14.187,24.802,13.413z
	 M14.269,6.901c0.845-0.02,1.689-0.061,2.534-0.083c0.853-0.02,1.707-0.033,2.56,0c0.789,0.03,1.579,0.097,2.37,0.11
	c0.509,0.009,1.019,0.036,1.528,0.021c-0.003,0.612-0.011,1.224,0.011,1.837c0.028,0.75,0.055,1.498,0.073,2.246
	c0.02,0.952,0.018,1.904,0.011,2.856c-0.024-0.028-0.052-0.052-0.076-0.08c-0.262-0.301-0.532-0.595-0.805-0.882
	c-0.135-0.143-0.321-0.212-0.508-0.212c-0.192,0-0.384,0.073-0.523,0.212c-0.083,0.083-0.133,0.182-0.168,0.286
	c-0.201-0.07-0.424-0.067-0.607,0.056c-0.309,0.207-0.616,0.417-0.927,0.622c-0.243,0.159-0.475,0.335-0.728,0.477
	c-0.007-0.005-0.015-0.01-0.022-0.015c-0.09-0.085-0.168-0.177-0.244-0.274c-0.382-0.5-0.771-0.995-1.163-1.488
	c-0.185-0.24-0.37-0.482-0.56-0.717c-0.085-0.106-0.173-0.207-0.262-0.307c-0.083-0.091-0.163-0.181-0.246-0.27
	c-0.152-0.157-0.325-0.266-0.526-0.347c-0.103-0.042-0.207-0.058-0.313-0.058c-0.074,0-0.148,0.008-0.224,0.021
	c-0.187,0.029-0.313,0.144-0.457,0.256c-0.098,0.077-0.185,0.171-0.278,0.254c-0.217,0.203-0.441,0.402-0.664,0.601
	c-0.659,0.585-1.329,1.159-1.995,1.737c0.005-0.127,0.01-0.253,0.015-0.38c0.03-0.801,0.039-1.604,0.028-2.406
	c-0.01-0.756-0.073-1.512-0.049-2.27c0.019-0.59,0.042-1.179,0.062-1.769C12.833,6.927,13.551,6.919,14.269,6.901z M19.069,14.401
	c-0.001,0-0.002,0-0.003,0.001l0,0C19.067,14.401,19.068,14.401,19.069,14.401z M16.937,14.143c0.041,0.054,0.082,0.106,0.122,0.159
	c-0.028-0.037-0.057-0.074-0.086-0.112l0,0C16.961,14.175,16.949,14.159,16.937,14.143z M19.023,17.162
	c-1.695,0.026-3.39,0.014-5.084-0.047c-0.674-0.024-1.347-0.04-2.021-0.056c0.019-0.406,0.038-0.812,0.058-1.219
	c0.07-0.035,0.14-0.072,0.2-0.128c0.65-0.6,1.299-1.201,1.949-1.8c0.494-0.458,0.968-0.937,1.483-1.371
	c0.212,0.213,0.406,0.452,0.591,0.68c0.261,0.325,0.525,0.649,0.781,0.979c0.208,0.278,0.406,0.558,0.599,0.846
	c0.116,0.173,0.24,0.343,0.394,0.484c0.1,0.095,0.213,0.177,0.323,0.26c0.305,0.226,0.695,0.26,1.051,0.163
	c0.244-0.067,0.474-0.228,0.675-0.378c0.157-0.118,0.315-0.236,0.472-0.356c0.303-0.226,0.61-0.451,0.927-0.66
	c0.129-0.084,0.218-0.205,0.282-0.335c0.418,0.427,0.838,0.855,1.225,1.309c0.106,0.124,0.257,0.178,0.413,0.194
	c-0.004,0.485,0.003,0.969,0.008,1.454c-0.579,0.01-1.157,0.025-1.735,0.011C20.75,17.174,19.889,17.148,19.023,17.162z
	 M18.828,11.748c0.238,0.154,0.512,0.264,0.791,0.321c0.347,0.071,0.669,0.045,1.006-0.061c0.23-0.075,0.461-0.161,0.677-0.27
	c0.189-0.097,0.36-0.26,0.5-0.419c0.142-0.161,0.264-0.339,0.35-0.536c0.167-0.388,0.266-0.817,0.232-1.242
	c-0.018-0.215-0.045-0.429-0.114-0.634c-0.045-0.128-0.1-0.254-0.159-0.376c-0.122-0.248-0.323-0.41-0.545-0.563
	c-0.12-0.083-0.26-0.134-0.376-0.22c-0.015-0.011-0.031-0.021-0.047-0.031c-0.14-0.095-0.293-0.127-0.473-0.151
	c-0.213-0.026-0.424-0.043-0.641-0.043c-0.012,0-0.023,0-0.035,0c-0.181,0.004-0.368,0.043-0.539,0.1
	c-0.238,0.075-0.41,0.209-0.601,0.36c-0.26,0.207-0.443,0.516-0.601,0.801C18.011,9.23,17.863,9.74,17.92,10.25
	C17.987,10.842,18.318,11.425,18.828,11.748z M19.637,9.904c0.018-0.08,0.041-0.157,0.069-0.234
	c0.075-0.156,0.162-0.306,0.259-0.448c0.016-0.018,0.032-0.035,0.048-0.052c0.006-0.002,0.013-0.003,0.019-0.005
	c0.047-0.002,0.093-0.002,0.14,0c0.04,0.037,0.084,0.07,0.13,0.101c0.093,0.061,0.19,0.114,0.284,0.17
	c0.022,0.067,0.041,0.135,0.057,0.205c0.004,0.079,0.004,0.157-0.002,0.235c-0.013,0.063-0.029,0.125-0.049,0.187
	c-0.018,0.032-0.036,0.064-0.056,0.095c-0.025,0.027-0.05,0.053-0.077,0.079c-0.016,0.01-0.033,0.02-0.05,0.029
	c-0.124,0.042-0.252,0.078-0.381,0.107c-0.053-0.013-0.104-0.028-0.156-0.045c-0.037-0.019-0.072-0.038-0.108-0.059
	c-0.016-0.015-0.032-0.03-0.048-0.046c-0.021-0.035-0.041-0.07-0.06-0.106c-0.008-0.025-0.016-0.05-0.023-0.075
	C19.635,9.996,19.635,9.95,19.637,9.904z"/>
</symbol>


<symbol id='contact' viewBox="0 0 32 32" >
<path class="sketchy_een" d="M28.701,11.297c-0.026-0.468-0.37-0.86-0.86-0.86c-0.049,0-0.096,0.021-0.144,0.03
	c-0.005,0-0.009-0.003-0.014-0.003c-0.098-0.002-0.196-0.002-0.294-0.002c-0.369,0-0.739,0.01-1.108,0.016
	c-0.498,0.008-0.995,0.017-1.492,0.046c0.005-0.248,0.008-0.497,0.014-0.745c0.02-0.769,0.012-1.537,0.01-2.306
	c-0.004-0.832,0-1.666,0.089-2.494c0.02-0.184,0.04-0.368,0.059-0.553c0.024-0.216-0.107-0.465-0.254-0.612
	c-0.026-0.026-0.061-0.038-0.09-0.06c-0.113-0.301-0.376-0.547-0.72-0.524c-0.329,0.024-0.666,0.002-0.996-0.012
	c-0.275-0.012-0.551-0.014-0.824-0.02c-0.303-0.006-0.604-0.002-0.907-0.006c-0.234-0.002-0.469-0.02-0.703-0.032
	c-0.648-0.036-1.296-0.042-1.943-0.055c-0.727-0.016-1.452-0.091-2.179-0.103C16.258,3.001,16.173,3,16.087,3
	c-0.586,0-1.17,0.032-1.756,0.044c-0.664,0.012-1.327,0.03-1.991,0.032c-0.662,0-1.323,0-1.985-0.018
	C9.783,3.044,9.209,3.089,8.638,3.135c-0.13,0.01-0.245,0.044-0.353,0.094c-0.39,0.044-0.7,0.371-0.704,0.77
	c-0.002,0.414,0.002,0.826-0.01,1.24C7.564,5.457,7.544,5.675,7.538,5.892C7.522,6.411,7.522,6.927,7.542,7.447
	c0.041,1.121,0.083,2.243,0.121,3.364c-0.285-0.018-0.57-0.021-0.855-0.016c-0.154,0.004-0.309,0.008-0.462,0.006
	c-0.291,0-0.582-0.036-0.874-0.061c-0.408-0.034-0.814-0.052-1.222-0.058c-0.005,0-0.009,0-0.014,0c-0.452,0-0.826,0.391-0.826,0.84
	c0,0.084,0.025,0.16,0.049,0.236c-0.012,0.056-0.034,0.109-0.035,0.168c-0.048,1.821,0.002,3.643-0.04,5.464
	c-0.008,0.409-0.038,0.814-0.046,1.223c-0.01,0.436-0.012,0.874-0.016,1.311c-0.008,0.884,0.01,1.768,0.022,2.651
	c0.012,0.95,0.022,1.9,0.024,2.85c0,0.448-0.002,0.894-0.032,1.342c-0.024,0.374-0.053,0.75-0.077,1.125
	c-0.019,0.31,0.164,0.575,0.409,0.734c0.146,0.181,0.359,0.306,0.605,0.303c0.681-0.008,1.363-0.049,2.044-0.047
	c0.353,0,0.707,0.03,1.06,0.032c0.345,0.002,0.687-0.024,1.03-0.046c0.703-0.042,1.408-0.048,2.114-0.048
	c0.721,0,1.438-0.002,2.157,0.036c0.365,0.02,0.731,0.042,1.095,0.056c0.343,0.014,0.687,0.01,1.032,0.012
	c0.745,0.008,1.492,0.008,2.238,0.006c0.737-0.002,1.474,0.016,2.211,0.02c0.345,0.002,0.687,0.002,1.032,0
	c0.394,0,0.788-0.002,1.183,0c1.072,0.01,2.143,0.032,3.215,0.034c0.45,0.002,0.897,0.026,1.347,0.012
	c0.464-0.016,0.923-0.065,1.389-0.067c0.164-0.001,0.309-0.065,0.436-0.155c0.112-0.014,0.222-0.051,0.32-0.109
	c0.129-0.075,0.23-0.176,0.305-0.305c0.077-0.133,0.117-0.275,0.117-0.43c0.087-0.725,0.032-1.468,0.032-2.199
	c0-0.818-0.004-1.634,0.026-2.452c0.059-1.632,0.057-3.262,0.065-4.897c0.002-0.561,0-1.123,0.008-1.686
	c0.008-0.578,0.04-1.159,0.052-1.737C28.808,13.739,28.77,12.515,28.701,11.297z M24.808,12.16c0.344-0.032,0.689-0.055,1.035-0.069
	c-0.35,0.27-0.697,0.544-1.042,0.821c0.004-0.245,0.004-0.49,0.007-0.735C24.808,12.172,24.808,12.166,24.808,12.16z M24.407,15.155
	c0.502-0.409,1.004-0.819,1.514-1.218c0.38-0.286,0.775-0.545,1.164-0.815c0.017,0.375,0.034,0.749,0.04,1.125
	c0.014,0.828-0.054,1.652-0.073,2.48c-0.022,0.856-0.012,1.714-0.01,2.569c0.002,0.802-0.008,1.604-0.018,2.405
	c-0.014,1.058-0.046,2.114-0.052,3.169c-0.004,0.481-0.006,0.965-0.01,1.446c0,0.015,0,0.03,0,0.045
	c-0.948-1.244-1.87-2.508-2.797-3.768c-0.513-0.697-1.03-1.391-1.513-2.11c-0.527-0.779-1.046-1.559-1.533-2.363
	c-0.036-0.06-0.081-0.111-0.128-0.159c0.03-0.024,0.059-0.051,0.089-0.075c0.628-0.499,1.236-1.024,1.852-1.537
	C23.418,15.943,23.915,15.553,24.407,15.155z M10.455,4.635c0.517,0.028,1.036,0.028,1.555,0.026c0.226,0,0.45,0,0.675,0
	c0.709,0.006,1.422,0.014,2.131-0.008c0.719-0.022,1.44-0.071,2.161-0.052c0.317,0.01,0.634,0.038,0.951,0.046
	c0.366,0.01,0.731,0.02,1.097,0.024c0.545,0.008,1.086,0.047,1.628,0.079c0.511,0.028,1.022,0.038,1.535,0.04
	c0.252,0.002,0.501,0.022,0.753,0.02c0.089-0.001,0.178-0.004,0.267-0.006c-0.047,0.729-0.055,1.459-0.077,2.191
	c-0.024,0.79-0.002,1.583-0.014,2.373c-0.006,0.402-0.016,0.802-0.014,1.204c0,0.39,0.016,0.778,0.034,1.169
	c0.03,0.695,0.024,1.389,0.024,2.086c0,0.103,0.002,0.204,0.006,0.307c0.001,0.022,0.011,0.04,0.013,0.062
	c-0.541,0.424-1.08,0.851-1.612,1.288c-0.63,0.519-1.248,1.054-1.892,1.555c0.01-0.007,0.02-0.015,0.029-0.022
	c-0.701,0.548-1.373,1.133-2.07,1.686c-0.341,0.269-0.679,0.545-1.02,0.814c-0.19,0.151-0.375,0.308-0.56,0.464
	c-0.454-0.322-0.906-0.645-1.35-0.984c0.029,0.022,0.058,0.045,0.086,0.068c-0.033-0.026-0.066-0.052-0.1-0.078
	c-0.022-0.017-0.044-0.034-0.067-0.051c0.019,0.014,0.037,0.028,0.056,0.042c-1.121-0.873-2.234-1.759-3.35-2.637
	c-0.671-0.527-1.339-1.058-2.006-1.591c0-0.154,0.007-0.307,0.014-0.457c0.012-0.281,0.022-0.561,0.036-0.842
	c0.034-0.681,0.022-1.363,0.008-2.044C9.372,10.704,9.364,9.999,9.323,9.3c-0.036-0.58-0.04-1.165-0.073-1.747
	C9.24,7.354,9.214,7.156,9.198,6.956C9.172,6.637,9.174,6.314,9.16,5.993C9.153,5.766,9.135,5.538,9.129,5.31
	C9.121,5.108,9.125,4.905,9.13,4.703C9.571,4.655,10.013,4.61,10.455,4.635z M10.989,18.448c-0.123,0.158-0.246,0.318-0.369,0.477
	c0.014-0.018,0.027-0.035,0.041-0.053c-0.439,0.566-0.908,1.108-1.366,1.658c-0.465,0.562-0.939,1.119-1.406,1.682
	c-0.454,0.545-0.905,1.094-1.343,1.654c-0.473,0.605-0.957,1.202-1.426,1.81c0.012-0.016,0.024-0.031,0.036-0.047
	c-0.032,0.042-0.064,0.083-0.095,0.124c0.011-0.793,0.01-1.588,0.012-2.383c0-0.861-0.03-1.72-0.032-2.579
	c-0.004-0.878-0.014-1.755,0.01-2.633c0.026-0.975,0.03-1.947,0.038-2.92c0.005-0.61,0.028-1.219,0.045-1.828
	c0.294,0.235,0.587,0.472,0.877,0.712c0.426,0.352,0.871,0.681,1.309,1.017c0.627,0.496,1.233,1.015,1.858,1.511
	c0.646,0.513,1.289,1.028,1.935,1.543c0.015,0.012,0.03,0.024,0.046,0.036C11.099,18.302,11.044,18.375,10.989,18.448z
	 M7.119,12.449c0.19,0,0.382-0.008,0.574-0.002c0.001,0.331,0.001,0.663-0.004,0.994c-0.41-0.326-0.815-0.658-1.212-1
	C6.691,12.447,6.906,12.449,7.119,12.449z M23.343,27.5c-0.737,0-1.474-0.014-2.213-0.012c-0.735,0.004-1.472,0-2.207-0.006
	c-0.757-0.008-1.511-0.042-2.266-0.042c-0.733,0.002-1.464,0.008-2.195,0c-0.719-0.008-1.438-0.032-2.157-0.073
	c-0.513-0.031-1.029-0.038-1.544-0.038c-0.185,0-0.371,0.001-0.556,0.002c-0.172,0.002-0.345,0-0.517,0
	c-0.329-0.002-0.658-0.004-0.987,0.01c-0.495,0.022-0.988,0.054-1.484,0.038c-0.238-0.006-0.477-0.02-0.715-0.028
	c-0.227-0.007-0.454,0.004-0.68,0.01c0.084-0.107,0.169-0.213,0.252-0.321c0.369-0.48,0.732-0.964,1.098-1.447
	c-0.008,0.011-0.017,0.022-0.025,0.033c0.038-0.051,0.077-0.102,0.116-0.153c-0.008,0.011-0.017,0.022-0.026,0.033
	c-0.021,0.027-0.041,0.055-0.062,0.082c-0.02,0.026-0.04,0.051-0.06,0.076c0.051-0.066,0.101-0.132,0.152-0.198
	c-0.009,0.013-0.019,0.025-0.029,0.038c0.015-0.019,0.03-0.038,0.044-0.057c0.021-0.027,0.042-0.055,0.063-0.082
	c-0.006,0.008-0.012,0.016-0.018,0.024c0.773-0.99,1.578-1.951,2.381-2.916c0.9-1.081,1.856-2.115,2.723-3.222
	c0.197,0.158,0.396,0.313,0.591,0.472c0.626,0.511,1.258,1.012,1.912,1.488c0.081,0.059,0.163,0.119,0.245,0.178
	c0.094,0.224,0.271,0.411,0.517,0.473c0.248,0.061,0.46,0.018,0.679-0.099c0.099-0.053,0.186-0.139,0.273-0.208
	c0.105-0.083,0.21-0.166,0.311-0.254c0.269-0.228,0.527-0.468,0.8-0.691c0.271-0.222,0.537-0.452,0.812-0.669
	c0.285-0.228,0.574-0.448,0.858-0.677c0.089-0.073,0.177-0.148,0.265-0.222c0.267,0.425,0.544,0.842,0.836,1.25
	c0.24,0.337,0.485,0.669,0.725,1.006c0.501,0.705,1.008,1.406,1.515,2.108c0.977,1.349,1.987,2.672,2.979,4.007
	c0.017,0.023,0.034,0.046,0.051,0.069c-0.124,0.002-0.248,0.006-0.371,0.008C24.736,27.504,24.041,27.502,23.343,27.5z
	 M14.684,18.976c0.008,0.006,0.016,0.012,0.024,0.019c-0.004-0.003-0.009-0.007-0.013-0.01
	C14.691,18.982,14.688,18.979,14.684,18.976z M7.331,25.39c-0.022,0.029-0.044,0.057-0.066,0.085
	c0.007-0.009,0.014-0.018,0.021-0.027C7.301,25.429,7.316,25.409,7.331,25.39z M7.226,25.525c0.004-0.006,0.009-0.011,0.013-0.017
	c0.001-0.001,0.001-0.002,0.002-0.003C7.236,25.512,7.231,25.518,7.226,25.525z M6.024,27.109c0.017-0.023,0.034-0.046,0.052-0.068
	c0.009-0.012,0.018-0.023,0.027-0.035C6.076,27.04,6.05,27.075,6.024,27.109z M12.299,9.541c-0.149-0.148-0.234-0.354-0.234-0.566
	c0-0.21,0.085-0.416,0.234-0.565c0.126-0.126,0.331-0.238,0.518-0.238c0.016,0,0.032,0.001,0.048,0.003
	c0.368,0.04,0.739,0.077,1.109,0.109c0.196,0.018,0.39,0.038,0.586,0.01c-0.067,0.01-0.135,0.018-0.204,0.028
	c0.422-0.057,0.848-0.046,1.272-0.042c0.359,0.004,0.717,0,1.076-0.004c0.497-0.004,0.994,0.008,1.49,0.01
	c0.364,0,0.727-0.012,1.089-0.026c0.434-0.018,0.796,0.376,0.796,0.796c0,0.426-0.362,0.808-0.796,0.796
	c-0.511-0.012-1.022-0.057-1.533-0.057c-0.572,0-1.147,0-1.719-0.01c-0.452-0.008-0.909,0.02-1.361,0.042
	c-0.6,0.03-1.206,0.002-1.805-0.049C12.646,9.756,12.46,9.701,12.299,9.541z M11.954,12.005c0-0.438,0.37-0.818,0.814-0.812
	c0.083,0,0.166,0.002,0.25,0.004c0.357,0.008,0.713,0.024,1.072,0.03c0.36,0.004,0.723-0.026,1.082-0.044
	c0.335-0.018,0.668-0.018,1-0.026c0.283-0.004,0.567-0.026,0.852-0.028c0.216-0.002,0.434-0.008,0.65-0.01
	c0.119,0,0.238,0.006,0.357,0.01c0.127,0.006,0.255,0.01,0.384,0.008c0.093,0,0.188,0,0.281,0c0.198,0,0.396,0,0.595-0.017
	c0.067-0.017,0.135-0.025,0.202-0.025c0.354,0,0.684,0.231,0.782,0.589c0.115,0.412-0.135,0.885-0.561,0.989
	c-0.109,0.026-0.222,0.036-0.333,0.043c-0.353,0.026-0.703,0.03-1.058,0.016c-0.236-0.008-0.473-0.004-0.709-0.002
	c-0.246,0.004-0.493,0.006-0.737-0.004c-0.285-0.012-0.568,0.002-0.854,0.01c-0.347,0.008-0.691,0.004-1.038,0.012
	c-0.739,0.02-1.478,0.062-2.217,0.071C12.324,12.825,11.954,12.445,11.954,12.005z"/>
</symbol>

</svg>